<?xml version="1.0" encoding="UTF-8"?>
<svg viewBox="0 0 512 512" xmlns="http://www.w3.org/2000/svg">
 <path d="m275.61 275.61-39.226-39.226 39.226 39.226-39.226-39.226-73.29 112.52 112.52-73.29zm-19.613-275.61q-71.226 1.0323-129.03 35.097-57.806 34.065-91.871 91.871-34.065 57.806-35.097 129.03 1.0323 71.226 35.097 129.03 34.065 57.806 91.871 91.871 57.806 34.065 129.03 35.097 71.226-1.0323 129.03-35.097 57.806-34.065 91.871-91.871 34.065-57.806 35.097-129.03-1.0323-71.226-35.097-129.03-34.065-57.806-91.871-91.871-57.806-34.065-129.03-35.097zm161.03 180.65 15.484-6.1935-15.484 6.1935 15.484-6.1935q3.0968-2.0645 6.1935 0 3.0968 1.0323 4.129 4.129 1.0323 3.0968 0 6.1935-1.0323 3.0968-4.129 4.129l-15.484 7.2258q-7.2258 2.0645-10.323-5.1613-3.0968-7.2258 4.129-10.323zm-101.16-91.871 7.2258-15.484-7.2258 15.484 7.2258-15.484q3.0968-6.1935 10.323-4.129 6.1935 3.0968 4.129 10.323l-6.1935 15.484q-3.0968 7.2258-10.323 4.129-3.0968-1.0323-5.1613-4.129-1.0323-3.0968 0-6.1935zm-59.871-35.097q7.2258 1.0323 8.2581 8.2581v16.516q-1.0323 7.2258-8.2581 8.2581-7.2258-1.0323-8.2581-8.2581v-16.516q1.0323-7.2258 8.2581-8.2581zm-77.419 15.484q3.0968-1.0323 6.1935 0 3.0968 1.0323 4.129 4.129l7.2258 15.484q1.0323 4.129-1.0323 8.2581-3.0968 4.129-8.2581 3.0968-4.129-1.0323-6.1935-5.1613l-6.1935-15.484q-2.0645-7.2258 4.129-10.323zm-66.065 43.355q6.1935-4.129 12.387 0l11.355 12.387q5.1613 5.1613 0 11.355-6.1935 5.1613-11.355 0l-12.387-11.355q-4.129-6.1935 0-12.387zm-58.839 143.48q1.0323-7.2258 8.2581-8.2581h16.516q7.2258 1.0323 8.2581 8.2581-1.0323 7.2258-8.2581 8.2581h-16.516q-7.2258-1.0323-8.2581-8.2581zm41.29 75.355-15.484 6.1935 15.484-6.1935-15.484 6.1935q-3.0968 2.0645-6.1935 0-3.0968-1.0323-4.129-4.129-1.0323-3.0968 0-6.1935t4.129-4.129l15.484-7.2258q7.2258-2.0645 10.323 5.1613 3.0968 7.2258-4.129 10.323zm4.129-140.39q-1.0323 3.0968-4.129 5.1613-3.0968 1.0323-6.1935 0l-15.484-7.2258q-6.1935-3.0968-4.129-10.323 3.0968-6.1935 10.323-4.129l15.484 6.1935q7.2258 3.0968 4.129 10.323zm97.032 232.26-7.2258 15.484 7.2258-15.484-7.2258 15.484q-3.0968 6.1935-10.323 4.129-7.2258-3.0968-4.129-10.323l6.1935-15.484q2.0645-4.129 6.1935-5.1613 5.1613-1.0323 8.2581 3.0968 2.0645 4.129 1.0323 8.2581zm68.129 26.839q-1.0323 7.2258-8.2581 8.2581-7.2258-1.0323-8.2581-8.2581v-16.516q1.0323-7.2258 8.2581-8.2581 7.2258 1.0323 8.2581 8.2581v16.516zm69.161-7.2258q-3.0968 1.0323-6.1935 0-3.0968-1.0323-4.129-4.129l-7.2258-15.484q-2.0645-7.2258 5.1613-10.323 7.2258-3.0968 10.323 4.129l6.1935 15.484q2.0645 7.2258-4.129 10.323zm66.065-43.355q-6.1935 4.129-12.387 0l-11.355-12.387q-5.1613-5.1613 0-11.355 6.1935-5.1613 11.355 0l12.387 11.355q4.129 6.1935 0 12.387zm-112.52-112.52-181.68 119.74 181.68-119.74-181.68 119.74 119.74-181.68 181.68-119.74-119.74 181.68zm155.87 46.452q-3.0968 6.1935-10.323 4.129l-15.484-6.1935q-7.2258-3.0968-4.129-10.323 1.0323-3.0968 4.129-5.1613 3.0968-1.0323 6.1935 0l15.484 7.2258q6.1935 3.0968 4.129 10.323zm7.2258-69.161h-16.516 16.516-16.516q-7.2258-1.0323-8.2581-8.2581 1.0323-7.2258 8.2581-8.2581h16.516q7.2258 1.0323 8.2581 8.2581-1.0323 7.2258-8.2581 8.2581z"/>
</svg>
