<?xml version="1.0" encoding="UTF-8"?>
<svg viewBox="0 0 512 512" xmlns="http://www.w3.org/2000/svg">
 <path d="m130.22 3.4528q-51.299 0.98651-86.813 34.528-34.528 33.541-39.461 83.854 0 0 0 0.98651v6.9056h7.8921-7.8921v32.555q0 21.703 10.852 38.474 10.852 17.757 30.582 26.636l56.231 25.649q-5.9191 8.8786-9.8651 18.744h-36.501l-28.609-13.811q-12.825-5.9191-20.717 6.9056-5.9191 13.811 6.9056 20.717l31.568 15.784q2.9595 1.973 6.9056 1.973h32.555q-0.98651 7.8921-0.98651 15.784v9.8651l-20.717 6.9056q-3.9461 0.98651-5.9191 3.9461l-31.568 31.568q-9.8651 10.852 0 21.703 10.852 9.8651 21.703 0l29.595-28.609 27.622-8.8786 29.595 29.595-39.461 13.811q-3.9461 0.98651-5.9191 3.9461l-31.568 31.568q-9.8651 10.852 0 21.703 10.852 9.8651 21.703 0l29.595-28.609 51.299-16.771 14.798 14.798-35.514 21.703q-7.8921 4.9326-7.8921 13.811v31.568q0.98651 14.798 15.784 15.784 14.798-0.98651 15.784-15.784v-22.69l41.434-24.663h106.54l41.434 24.663v22.69q0.98651 14.798 15.784 15.784 14.798-0.98651 15.784-15.784v-31.568q0-8.8786-7.8921-13.811l-35.514-21.703 14.798-14.798 51.299 16.771 29.595 28.609q10.852 9.8651 21.703 0 8.8786-10.852 0-21.703l-31.568-31.568q-1.973-2.9595-5.9191-3.9461l-39.461-13.811 29.595-29.595 27.622 8.8786 29.595 28.609q10.852 8.8786 21.703 0 8.8786-10.852 0-21.703l-31.568-31.568q-2.9595-2.9595-5.9191-3.9461l-20.717-6.9056v-9.8651q0-7.8921-0.98651-15.784h32.555q2.9595 0 6.9056-1.973l31.568-15.784q11.838-7.8921 6.9056-20.717-7.8921-12.825-20.717-6.9056l-28.609 13.811h-36.501q-3.9461-9.8651-9.8651-18.744l56.231-25.649q19.73-8.8786 30.582-26.636 10.852-16.771 10.852-38.474v-32.555h-7.8921 7.8921v-6.9056q0-0.98651 0-0.98651-4.9326-50.312-39.461-83.854-35.514-33.541-86.813-34.528h-44.393q-4.9326 0-6.9056 4.9326-1.973 3.9461 1.973 8.8786l35.514 35.514q3.9461 4.9326 1.973 8.8786-1.973 4.9326-6.9056 4.9326h-36.501q-6.9056 0.98651-6.9056 7.8921 2.9595 23.676 19.73 39.461 17.757 15.784 42.42 15.784h78.921v32.555q-0.98651 14.798-13.811 21.703l-70.042 32.555q-25.649-18.744-58.204-22.69v-48.339q-0.98651-14.798-15.784-15.784-14.798 0.98651-15.784 15.784v47.353h-63.137v-47.353q-0.98651-14.798-15.784-15.784-14.798 0.98651-15.784 15.784v48.339q-32.555 3.9461-58.204 22.69l-70.042-32.555q-12.825-6.9056-13.811-21.703v-32.555h78.921q24.663-0.98651 42.42-15.784 16.771-15.784 20.717-39.461-0.98651-6.9056-7.8921-7.8921h-36.501q-4.9326 0-6.9056-4.9326-1.973-3.9461 1.973-8.8786l35.514-35.514q3.9461-4.9326 1.973-8.8786-1.973-4.9326-6.9056-4.9326h-44.393z"/>
</svg>
