<?xml version="1.0" encoding="UTF-8"?>
<svg viewBox="0 0 512 512" xmlns="http://www.w3.org/2000/svg">
 <path d="m499.58 206.31q-0.88735 0 0 0zm-5.3241-69.213q-4.4367-10.648-5.3241-12.423-0.88735-1.7747-2.662-5.3241-0.88735-3.5494-4.4367-15.085-1.7747-8.8735-5.3241-17.747-2.662-4.4367-3.5494-6.2114-0.88735-0.88735-0.88735-1.7747 0.88735-3.5494 7.0988-12.423 6.2114-9.7608 10.648-18.634 3.5494-9.7608-0.88735-10.648-4.4367 0-8.8735 7.0988-4.4367 4.4367-8.8735 7.9861-5.3241 2.662-6.2114 3.5494-1.7747 0.88735-3.5494 0.88735-3.5494-0.88735-5.3241-4.4367-0.88735-3.5494 0-9.7608 0.88735-11.536-2.662-13.31-2.662 0.88735-7.0988 10.648-4.4367 9.7608-7.9861 12.423-1.7747 0-4.4367-0.88735-7.0988-1.7747-22.184 0-15.085 1.7747-39.931 16.86-12.423 6.2114-30.17 20.409-17.747 13.31-32.832 24.846-14.198 11.536-14.198 12.423-3.5494 2.662-9.7608 3.5494-9.7608 2.662-22.184 10.648-20.409 12.423-42.593 14.198-22.184 0.88735-38.156-1.7747-15.972-3.5494-17.747-4.4367-47.917-11.536-73.65-13.31-25.733-0.88735-39.931 5.3241-14.198 6.2114-27.508 18.634-12.423 11.536-16.86 21.296-4.4367 9.7608-4.4367 12.423 0 0 0 0.88735-1.7747 19.522 3.5494 40.818 1.7747 8.8735 2.662 15.972 0 7.0988 0 12.423 0 6.2114 0.88735 22.184 0.88735 15.972 6.2114 52.354 0 0.88735 1.7747 0.88735 1.7747 0 2.662 0.88735-0.88735 8.8735-3.5494 10.648 0 0 0 0.88735-2.662 6.2114 0 14.198 1.7747 6.2114 3.5494 19.522 2.662 14.198 3.5494 22.184 0 26.62 0 33.719 0.88735 7.0988 1.7747 9.7608 4.4367 7.9861 11.536 8.8735 1.7747 0.88735 3.5494 1.7747 1.7747 2.662 0.88735 6.2114 0 2.662 0 4.4367 1.7747 3.5494 6.2114 4.4367 6.2114 2.662 15.085 1.7747 7.9861-1.7747 10.648-3.5494 0.88735-0.88735 0.88735-1.7747 0.88735-1.7747 2.662-2.662 7.0988 0 12.423-2.662 5.3241-2.662 0.88735-8.8735 0-0.88735-3.5494-6.2114-2.662-5.3241-4.4367-7.9861-1.7747-1.7747-4.4367-2.662-0.88735-0.88735-2.662-1.7747-3.5494-3.5494-6.2114-9.7608-2.662-6.2114-2.662-7.0988-3.5494-13.31-5.3241-29.282-1.7747-15.972 1.7747-30.17 2.662-8.8735 10.648-26.62 8.8735-18.634 15.972-34.607 7.9861-15.972 8.8735-16.86 2.662-4.4367 9.7608-6.2114 7.0988-2.662 14.198 0 1.7747 0.88735 5.3241 4.4367 5.3241 4.4367 17.747 11.536 12.423 7.0988 34.607 11.536 23.958 4.4367 46.142 2.662 22.184-0.88735 38.156-2.662 10.648-1.7747 15.972-1.7747 0.88735 0.88735 0 7.9861-1.7747 7.9861-0.88735 26.62 0 11.536 0 14.198t-0.88735 4.4367q-0.88735 0.88735-2.662 7.9861-0.88735 5.3241 0 12.423 1.7747 10.648-1.7747 29.282 0 4.4367-2.662 12.423-4.4367 15.085-4.4367 25.733 0.88735 1.7747 1.7747 3.5494 0 6.2114 3.5494 8.8735 3.5494 0.88735 5.3241 0.88735 5.3241-1.7747 3.5494 8.8735-0.88735 2.662-0.88735 7.0988 0 4.4367 2.662 6.2114 3.5494 2.662 15.085 2.662 11.536 0 16.86-1.7747 1.7747-0.88735 1.7747-2.662 0.88735-1.7747 3.5494-4.4367 0.88735 0 2.662 0 6.2114 0 7.9861-5.3241-0.88735-2.662-4.4367-9.7608-3.5494-7.0988-4.4367-7.9861-1.7747-2.662-4.4367-3.5494-3.5494-1.7747-5.3241-3.5494-4.4367-8.8735-2.662-27.508 1.7747-18.634 3.5494-25.733 0.88735-5.3241 2.662-10.648 2.662-8.8735 4.4367-17.747 7.0988-25.733 8.8735-37.269 2.662-12.423 6.2114-23.071 0-0.88735 0.88735-4.4367 1.7747-5.3241 4.4367-12.423 1.7747-6.2114 3.5494-9.7608 12.423-21.296 28.395-39.931 0.88735-0.88735 1.7747-1.7747 12.423-15.972 23.958-32.832 10.648-15.085 22.184-29.282 0.88735-1.7747 2.662-3.5494 3.5494-8.8735 13.31-3.5494 4.4367 1.7747 8.8735 3.5494 9.7608 3.5494 19.522 11.536 11.536 12.423 9.7608 16.86 0 1.7747 0 3.5494 3.5494 7.9861 13.31 7.9861 12.423-2.662 12.423-1.7747 3.5494-2.662 6.2114-7.0988 0.88735-1.7747 1.7747-3.5494 4.4367-4.4367 4.4367-11.536 0-2.662 0-4.4367-0.88735-1.7747-3.5494-7.0988-3.5494-7.9861-14.198-35.494z"/>
</svg>
